<?xml version="1.0" encoding="utf-8"?>
<!-- Generator: Adobe Illustrator 18.0.0, SVG Export Plug-In . SVG Version: 6.00 Build 0)  -->
<!DOCTYPE svg PUBLIC "-//W3C//DTD SVG 1.1//EN" "http://www.w3.org/Graphics/SVG/1.1/DTD/svg11.dtd">
<svg version="1.1" id="Layer_2" xmlns="http://www.w3.org/2000/svg" xmlns:xlink="http://www.w3.org/1999/xlink" x="0px" y="0px"
	 viewBox="0 0 100 100" enable-background="new 0 0 100 100" xml:space="preserve">
<g>
	<path fill="#BBBDC0" d="M50,1.4C23.2,1.4,1.4,23.2,1.4,50S23.2,98.6,50,98.6S98.6,76.8,98.6,50S76.8,1.4,50,1.4z M50,88.2
		c-21.1,0-38.2-17.2-38.2-38.2S28.9,11.8,50,11.8S88.2,28.9,88.2,50S71.1,88.2,50,88.2z"/>
	<path fill="#BBBDC0" d="M75.3,48.5H53.5V22.3c0-2.2-1.8-4-4-4s-4,1.8-4,4v30.3c0,2.2,1.8,4,4,4h25.8c2.2,0,4-1.8,4-4
		S77.5,48.5,75.3,48.5z"/>
</g>
</svg>
