<?xml version="1.0" encoding="utf-8"?>
<!-- Generator: Adobe Illustrator 18.0.0, SVG Export Plug-In . SVG Version: 6.00 Build 0)  -->
<!DOCTYPE svg PUBLIC "-//W3C//DTD SVG 1.1//EN" "http://www.w3.org/Graphics/SVG/1.1/DTD/svg11.dtd">
<svg version="1.1" id="Layer_1" xmlns="http://www.w3.org/2000/svg" xmlns:xlink="http://www.w3.org/1999/xlink" x="0px" y="0px"
	 viewBox="0 230 1366 308" enable-background="new 0 230 1366 308" xml:space="preserve">
<g>
	<g enable-background="new    ">
		<path fill="#30C1D5" d="M115.7,341.5C105,372,93.5,403.8,83.9,432.2H63.8L1.5,243.6h28.1l44.7,135.1l30.8-87.5h21.7l30.5,87.2
			c14.7-44.7,31-92.3,44.9-134.8h28.4l-62.3,188.6h-20.1L115.7,341.5z"/>
		<path fill="#30C1D5" d="M262.8,322.5H342v-78.9h27.3v187H342v-81.3h-79.2v81.3h-27v-187h27V322.5z"/>
		<path fill="#30C1D5" d="M489.6,375.5h-67.1c-7.2,17.1-16.6,39.6-22.5,55.1h-29.2L446,241h19.8L541,430.6h-28.9L489.6,375.5z
			 M432.7,350.1h46.5l-23-66.1L432.7,350.1z"/>
		<path fill="#30C1D5" d="M568.8,431.4V270.6h-56.7v-27.3h140.2v27.3h-56.4v160.8H568.8z"/>
		<path fill="#30C1D5" d="M687.3,243.1v66.3h-25.7v-66.3H687.3z"/>
		<path fill="#30C1D5" d="M804.5,291.8c-3.7-16.9-21.9-24.1-38.2-23.8c-12.6,0.3-26.5,4.5-34,14.2c-3.7,4.8-5.1,11-4.5,17.4
			c1.3,19.3,22.5,21.7,42.5,23.5c25.7,3.2,57.5,9.9,64.7,39.9c0.8,4,1.3,8.6,1.3,12.3c0,36.1-35.8,57-69.5,57
			c-28.9,0-63.9-17.1-67.4-50.6l-0.3-5.1l27.3-0.5l0.3,4V379c1.9,17.4,23,26.5,40.4,26.5c20.1,0,42-11.2,42-30.5
			c0-1.9-0.3-4-0.8-6.4c-3.2-14.2-22.5-16.6-41.2-18.5c-29.2-2.9-63.4-9.4-66.3-48.4v0.3c-1.1-12.6,2.1-25.1,10.2-35.6
			c12.6-16.3,35-24.9,56.7-24.9c28.9,0,58.8,15,63.7,49.2L804.5,291.8z"/>
		<path fill="#30C1D5" d="M945.1,374.4V243.6h27.3v131.1c0,20.6,22.2,30.8,42,30.8c19.5,0,41.7-10.4,41.7-31V243.6h27.3v131.1
			c0,38-36.9,57.8-69,57.8C981.5,432.5,945.1,412.7,945.1,374.4z"/>
		<path fill="#30C1D5" d="M1170.1,243.4c40.4,0,60.7,31.3,60.7,62.6s-20.3,62.3-60.7,62.3h-41.2v62.3h-27.3V243.4H1170.1z
			 M1170.1,341.5c22.7,0,34-17.7,34-35.3c0-17.9-11.2-35.6-34-35.6h-41.2v70.9H1170.1z"/>
		<path fill="#30C1D5" d="M1310.2,391.5h-27.3v-21.9c0-24.1,15.5-31.3,32.4-39.9h-0.3c9.9-5.3,20.1-10.7,20.6-26.7
			c0.5-16.9-13.6-33.2-39.3-33.2c-18.5,0-32.4,11-40.9,28.6l-21.9-12.6c11.5-24.6,32.4-43.9,62.9-43.9c43.3,0,68.5,29.7,67.9,61.5
			c-0.8,31.8-20.9,41.5-37.7,50.6c-8.6,4.5-16.6,8.3-16.6,15.8L1310.2,391.5z M1314,417.2c0,8.3-7.2,17.1-17.7,17.1
			c-9.4,0-16.9-8.8-16.9-17.1c0-10.4,7.5-17.7,16.9-17.7C1306.8,399.6,1314,406.8,1314,417.2z"/>
	</g>
</g>
<g>
	<g enable-background="new    ">
		<path fill="#9A9A9B" d="M333.4,528.3v-48.1L316,526h-4.4l-17.3-45.8v48.1h-5.6v-61.5h5.8l19.4,50.7l19.4-50.7h5.8v61.5H333.4z"/>
		<path fill="#9A9A9B" d="M471.2,528.3l-7.1-21.2h-21.4l-7.1,21.2h-5.9l21-61.5h5.4l21.1,61.5H471.2z M462.7,502l-9.2-27.5
			l-9.2,27.5H462.7z"/>
		<path fill="#9A9A9B" d="M599.8,523.2v5.2h-31.6v-61.5h5.7v56.4H599.8z"/>
		<path fill="#9A9A9B" d="M711.4,466.8c14.1,0,21.3,8.9,21.3,20.6V510c0,14.1-9.3,18.4-19.6,18.4h-22.1v-61.5H711.4z M696.7,523.1
			h16.4c8,0,13.9-2.9,13.9-13.2v-22.6c0-9.2-5.1-15.4-15.6-15.4h-14.8V523.1z"/>
		<path fill="#9A9A9B" d="M827.3,528.3v-61.5h5.7v61.5H827.3z"/>
		<path fill="#9A9A9B" d="M941.7,528.3l-19-61.5h5.9l17,55.2l17-55.2h5.9l-18.9,61.5H941.7z"/>
		<path fill="#9A9A9B" d="M1066,472V495h29.6v5.2H1066v23h32.5v5.2h-38.3v-61.5h37.8v5.2H1066z"/>
		<path fill="#9A9A9B" d="M1192.5,511.7c0.2,6.2,5.1,12.3,16,12.3c11.1,0,15.8-5.2,15.8-12.5c0-7.5-7.9-10-16.6-12.7
			c-10.5-3.3-19.2-6.7-19.2-16.5c0-10.6,8.5-16.5,20.1-16.5c11.4,0,20.1,5.7,20.3,16.5h-5.5c-0.1-7.7-6.7-11.3-14.8-11.3
			c-8.1,0-14.5,3.9-14.5,10.9c0,6.2,6.3,8.7,15.5,11.4c11.8,3.4,20.2,7.9,20.2,18.2c0,9.8-5.9,17.8-21.2,17.8
			c-13.8,0-21.4-8.2-21.6-17.5L1192.5,511.7z"/>
	</g>
</g>
</svg>
