<?xml version="1.0" encoding="utf-8"?>
<!-- Generator: Adobe Illustrator 18.0.0, SVG Export Plug-In . SVG Version: 6.00 Build 0)  -->
<!DOCTYPE svg PUBLIC "-//W3C//DTD SVG 1.1//EN" "http://www.w3.org/Graphics/SVG/1.1/DTD/svg11.dtd">
<svg version="1.1" id="Capa_1" xmlns="http://www.w3.org/2000/svg" xmlns:xlink="http://www.w3.org/1999/xlink" x="0px" y="0px"
	 viewBox="0 0 33.8 22.2" enable-background="new 0 0 33.8 22.2" xml:space="preserve">
<rect x="8.7" y="0" fill="#808285" width="25.1" height="5.1"/>
<rect x="8.7" y="8.2" fill="#808285" width="25.1" height="5.1"/>
<rect x="8.7" y="17.1" fill="#808285" width="25.1" height="5.1"/>
<circle fill="#808285" cx="2.6" cy="2.6" r="2.6"/>
<path fill="#808285" d="M2.6,8.1C1.2,8.1,0,9.3,0,10.8c0,1.4,1.2,2.6,2.6,2.6c1.4,0,2.6-1.2,2.6-2.6C5.2,9.3,4.1,8.1,2.6,8.1z"/>
<path fill="#808285" d="M2.6,16.9c-1.4,0-2.6,1.2-2.6,2.6c0,1.5,1.2,2.6,2.6,2.6c1.4,0,2.6-1.2,2.6-2.6C5.2,18.1,4.1,16.9,2.6,16.9z
	"/>
</svg>
